<?xml version="1.0" encoding="utf-8"?>
<!-- Generator: Adobe Illustrator 23.0.1, SVG Export Plug-In . SVG Version: 6.00 Build 0)  -->
<svg version="1.1" id="图层_1" xmlns="http://www.w3.org/2000/svg" xmlns:xlink="http://www.w3.org/1999/xlink" x="0px" y="0px"
	 viewBox="0 0 1680.94 1190.55" style="enable-background:new 0 0 1680.94 1190.55;" xml:space="preserve">
<style type="text/css">
	.st0{fill:#FFFFFF;}
	.st1{fill:#F5F8FF;}
	.st2{fill:#FCFDFF;}
	.st3{fill:#F8FBFE;}
	.st4{fill:#F2F6FE;}
	.st5{fill:#F8FAFE;}
	.st6{fill:#C6D7FB;}
	.st7{fill:#EAF1FE;}
	.st8{fill:#EDF3FE;}
	.st9{fill:#C9DAFB;}
	.st10{fill:#A5C2F9;}
	.st11{fill:#C9DBFB;}
	.st12{fill:#B1CAFB;}
	.st13{fill:#D1E0FC;}
	.st14{fill:#8DB1F9;}
	.st15{fill:#1A5DF5;}
	.st16{fill:#C7D8FC;}
	.st17{fill:#3F7AF7;}
	.st18{fill:#3975F7;}
	.st19{fill:#A3BFF9;}
	.st20{fill:#98B9F9;}
	.st21{fill:#D9E5FD;}
	.st22{fill:#B5CDFA;}
	.st23{fill:#9BBBFA;}
	.st24{fill:#A5C2FA;}
	.st25{fill:#A3C0F9;}
	.st26{fill:#EDF2FE;}
	.st27{fill:#EDF2FD;}
	.st28{fill:#F1F6FD;}
	.st29{fill:#CDDDFC;}
	.st30{fill:#C3D6FB;}
	.st31{fill:#AAC5FB;}
	.st32{fill:#BCD1FB;}
	.st33{fill:#D4E1FC;}
	.st34{fill:#D5E1FD;}
	.st35{fill:#ECF3FE;}
	.st36{fill:#C7D7FC;}
	.st37{fill:#E3EBFD;}
	.st38{fill:#D5E2FC;}
	.st39{fill:#DCE7FC;}
	.st40{fill:#DCE7FD;}
	.st41{fill:#D0E0FC;}
	.st42{fill:#DBE7FD;}
	.st43{fill:#DFE9FC;}
	.st44{fill:#DFE9FD;}
	.st45{fill:#CDDDFB;}
	.st46{fill:#EEF3FE;}
	.st47{fill:#EDF3FD;}
	.st48{fill:#DBE8FD;}
	.st49{fill:#F1F6FE;}
	.st50{fill:#E3ECFD;}
	.st51{fill:#F4F8FE;}
	.st52{fill:#C6D8FB;}
	.st53{fill:#F4F8FD;}
	.st54{fill:#EDF3FF;}
	.st55{fill:#EBF1FE;}
	.st56{fill:#C2D6FB;}
	.st57{fill:#94B6F9;}
	.st58{fill:#C6D7FC;}
	.st59{fill:#D8E5FD;}
	.st60{fill:#E2ECFD;}
	.st61{fill:#82AAF9;}
	.st62{fill:#DAE7FE;}
	.st63{fill:#7CA5F8;}
	.st64{fill:#F5F9FF;}
	.st65{fill:#F9FBFE;}
	.st66{fill:#F5F8FE;}
	.st67{fill:#CEDCFC;}
	.st68{fill:#CEDDFC;}
	.st69{fill:#F8FAFF;}
	.st70{fill:#F4F8FF;}
	.st71{fill:#E7EEFC;}
	.st72{fill:#F8FBFF;}
	.st73{fill:#EAF1FD;}
	.st74{fill:#ECF4FF;}
	.st75{fill:#F9FCFE;}
	.st76{fill:#F9FBFF;}
	.st77{fill:#F0F6FF;}
	.st78{fill:#E7EEFE;}
	.st79{fill:#DFEAFD;}
	.st80{fill:#F1F6FF;}
	.st81{fill:#E6EEFD;}
	.st82{fill:#F5F7FF;}
	.st83{fill:#EBF1FD;}
	.st84{fill:#B4CCFA;}
	.st85{fill:#F0F5FE;}
	.st86{font-family:'AvenirNext-DemiBold';}
	.st87{font-size:13.1966px;}
	.st88{font-family:'AvenirNext-Medium';}
	.st89{font-size:11.6618px;}
	.st90{fill:#545252;}
	.st91{font-family:'AvenirNext-Italic';}
	.st92{font-size:6.7538px;}
	.st93{font-size:7.3061px;}
	.st94{fill:none;stroke:#6D6C6C;stroke-width:0.25;stroke-miterlimit:10;}
	.st95{fill:none;stroke:#6D6C6C;stroke-width:0.25;stroke-miterlimit:10;stroke-dasharray:0.2507,0.5013;}
	.st96{fill:#ED88A9;}
	.st97{fill:none;stroke:#EB3E71;stroke-miterlimit:10;}
	.st98{clip-path:url(#SVGID_3_);fill:url(#SVGID_4_);}
	.st99{font-size:12.9057px;}
	.st100{fill:none;}
	.st101{font-size:11.9302px;}
	.st102{fill:#231815;}
	.st103{font-size:21px;}
	.st104{font-family:'AvenirNext-UltraLightItalic';}
	.st105{font-family:'AvenirNext-Heavy';}
	.st106{font-size:24px;}
	.st107{fill:#EB3E71;}
</style>
<rect id="_x30_501" x="190.18" y="553.03" class="st0" width="76.13" height="38.03"/>
<rect id="_x30_502" x="190.18" y="591.06" class="st0" width="76.13" height="38.03"/>
<rect id="_x30_503" x="190.39" y="629.09" class="st1" width="76.13" height="38.03"/>
<rect id="_x30_504" x="190.39" y="667.11" class="st2" width="76.13" height="38.03"/>
<rect id="_x30_505" x="190.39" y="705.14" class="st0" width="76.13" height="38.03"/>
<rect id="_x30_506" x="190.39" y="743.17" class="st2" width="76.13" height="38.03"/>
<rect id="_x30_507" x="190.39" y="781.2" class="st0" width="76.13" height="38.03"/>
<rect id="_x30_508" x="190.39" y="819.23" class="st2" width="76.13" height="38.03"/>
<rect id="_x30_509" x="190.39" y="857.26" class="st3" width="76.13" height="38.03"/>
<rect id="_x30_510" x="190.39" y="895.29" class="st0" width="76.13" height="38.03"/>
<rect id="_x30_511" x="190.39" y="933.32" class="st2" width="76.13" height="38.03"/>
<rect id="_x30_512" x="190.39" y="971.34" class="st3" width="76.13" height="38.03"/>
<rect id="_x30_701" x="342.76" y="553.03" class="st4" width="76.13" height="38.03"/>
<rect id="_x30_702" x="342.66" y="590.89" class="st5" width="76.34" height="38.03"/>
<rect id="_x30_703" x="342.76" y="629.09" class="st6" width="76.13" height="38.03"/>
<rect id="_x30_704" x="342.76" y="667.11" class="st3" width="76.13" height="38.03"/>
<rect id="_x30_705" x="342.76" y="705.14" class="st7" width="76.13" height="38.03"/>
<rect id="_x30_706" x="342.76" y="743.17" class="st7" width="76.13" height="38.03"/>
<rect id="_x30_707" x="342.76" y="781.2" class="st8" width="76.13" height="38.03"/>
<rect id="_x30_708" x="342.76" y="819.23" class="st9" width="76.13" height="38.03"/>
<rect id="_x30_709" x="342.76" y="857.26" class="st10" width="76.13" height="38.03"/>
<rect id="_x30_710" x="342.76" y="895.29" class="st11" width="76.13" height="38.03"/>
<rect id="_x30_711" x="342.76" y="933.32" class="st12" width="76.13" height="38.03"/>
<rect id="_x30_712" x="342.76" y="971.34" class="st13" width="76.13" height="38.03"/>
<rect id="_x30_801" x="418.79" y="553.03" class="st14" width="76.13" height="38.03"/>
<rect id="_x30_802" x="419" y="591.06" class="st15" width="75.92" height="38.03"/>
<rect id="_x30_803" x="419" y="629.09" class="st16" width="76.13" height="38.03"/>
<rect id="_x30_804" x="419" y="667.11" class="st17" width="76.13" height="38.03"/>
<rect id="_x30_805" x="419" y="705.14" class="st18" width="76.13" height="38.03"/>
<rect id="_x30_806" x="419" y="743.17" class="st19" width="76.13" height="38.03"/>
<rect id="_x30_807" x="419" y="781.2" class="st20" width="76.13" height="38.03"/>
<rect id="_x30_808" x="419" y="819.23" class="st21" width="76.13" height="38.03"/>
<rect id="_x30_809" x="419" y="857.26" class="st22" width="76.13" height="38.03"/>
<rect id="_x30_810" x="419" y="895.29" class="st23" width="76.13" height="38.03"/>
<rect id="_x30_811" x="419" y="933.32" class="st24" width="76.13" height="38.03"/>
<rect id="_x30_812" x="419" y="971.34" class="st25" width="76.13" height="38.03"/>
<rect id="_x30_601" x="266.31" y="553.03" class="st0" width="76.13" height="38.03"/>
<rect id="_x30_602" x="266.31" y="591.06" class="st0" width="76.13" height="38.03"/>
<rect id="_x30_603" x="266.52" y="629.09" class="st0" width="76.13" height="38.03"/>
<rect id="_x30_604" x="266.52" y="667.11" class="st0" width="76.13" height="38.03"/>
<rect id="_x30_605" x="266.52" y="705.14" class="st0" width="76.13" height="38.03"/>
<rect id="_x30_606" x="266.52" y="743.17" class="st0" width="76.13" height="38.03"/>
<rect id="_x30_607" x="266.52" y="781.2" class="st0" width="76.13" height="38.03"/>
<rect id="_x30_608" x="266.52" y="819.23" class="st21" width="76.13" height="38.03"/>
<rect id="_x30_609" x="266.52" y="857.26" class="st26" width="76.13" height="38.03"/>
<rect id="_x30_610" x="266.52" y="895.29" class="st27" width="76.13" height="38.03"/>
<rect id="_x30_611" x="266.52" y="933.32" class="st28" width="76.13" height="38.03"/>
<rect id="_x30_612" x="266.52" y="971.34" class="st0" width="76.13" height="38.03"/>
<g id="BIAOGE">
	<rect x="494.92" y="553.03" class="st29" width="76.13" height="38.03"/>
	<rect x="494.92" y="591.06" class="st30" width="76.13" height="38.03"/>
	<rect x="495.13" y="629.09" class="st31" width="76.13" height="38.03"/>
	<rect x="495.13" y="667.11" class="st32" width="76.13" height="38.03"/>
	<rect x="495.13" y="705.14" class="st33" width="76.13" height="38.03"/>
	<rect x="495.13" y="743.17" class="st34" width="76.13" height="38.03"/>
	<rect x="495.13" y="781.2" class="st35" width="76.13" height="38.03"/>
	<rect x="495.13" y="819.23" class="st21" width="76.13" height="38.03"/>
	<rect x="495.13" y="857.26" class="st16" width="76.13" height="38.03"/>
	<rect x="495.13" y="895.29" class="st36" width="76.13" height="38.03"/>
	<rect x="495.13" y="933.32" class="st37" width="76.13" height="38.03"/>
	<rect x="495.13" y="971.34" class="st38" width="76.13" height="38.03"/>
	<rect x="647.29" y="553.03" class="st39" width="76.13" height="38.03"/>
	<rect x="647.29" y="591.06" class="st2" width="76.13" height="38.03"/>
	<rect x="647.5" y="629.09" class="st40" width="76.13" height="38.03"/>
	<rect x="647.5" y="667.11" class="st41" width="76.13" height="38.03"/>
	<rect x="647.5" y="705.14" class="st42" width="76.13" height="38.03"/>
	<rect x="647.5" y="743.17" class="st43" width="76.13" height="38.03"/>
	<rect x="647.5" y="781.2" class="st44" width="76.13" height="38.03"/>
	<rect x="647.5" y="819.23" class="st26" width="76.13" height="38.03"/>
	<rect x="647.5" y="857.26" class="st45" width="76.13" height="38.03"/>
	<rect x="647.5" y="895.29" class="st46" width="76.13" height="38.03"/>
	<rect x="647.5" y="933.32" class="st47" width="76.13" height="38.03"/>
	<rect x="647.5" y="971.34" class="st48" width="76.13" height="38.03"/>
	<rect x="723.64" y="553.03" class="st3" width="76.13" height="38.03"/>
	<rect x="723.64" y="591.06" class="st21" width="76.13" height="38.03"/>
	<rect x="723.54" y="629.14" class="st49" width="76.34" height="38.03"/>
	<rect x="723.65" y="667.17" class="st50" width="76.13" height="38.03"/>
	<rect x="723.75" y="705.14" class="st49" width="76.13" height="38.03"/>
	<rect x="723.65" y="743.17" class="st51" width="76.13" height="38.03"/>
	<rect x="723.65" y="781.26" class="st52" width="76.13" height="38.03"/>
	<rect x="723.65" y="819.23" class="st30" width="76.13" height="38.03"/>
	<rect x="723.65" y="857.32" class="st30" width="76.13" height="38.03"/>
	<rect x="723.65" y="895.29" class="st41" width="76.13" height="38.03"/>
	<rect x="723.65" y="933.32" class="st53" width="76.13" height="38.03"/>
	<rect x="723.65" y="971.34" class="st54" width="76.13" height="38.03"/>
	<rect x="571.05" y="553.03" class="st55" width="76.13" height="38.03"/>
	<rect x="571.05" y="591.06" class="st56" width="76.13" height="38.03"/>
	<rect x="571.26" y="629.09" class="st44" width="76.13" height="38.03"/>
	<rect x="571.26" y="667.11" class="st57" width="76.13" height="38.03"/>
	<rect x="571.26" y="705.14" class="st58" width="76.13" height="38.03"/>
	<rect x="571.26" y="743.17" class="st59" width="76.13" height="38.03"/>
	<rect x="571.26" y="781.2" class="st60" width="76.13" height="38.03"/>
	<rect x="571.26" y="819.23" class="st21" width="76.13" height="38.03"/>
	<rect x="571.26" y="857.26" class="st61" width="76.13" height="38.03"/>
	<rect x="571.26" y="895.29" class="st62" width="76.13" height="38.03"/>
	<rect x="571.26" y="933.32" class="st63" width="76.13" height="38.03"/>
	<rect x="571.26" y="971.34" class="st64" width="76.13" height="38.03"/>
	<rect x="799.99" y="553.08" class="st26" width="75.92" height="38.03"/>
	<rect x="799.78" y="591.11" class="st2" width="76.34" height="38.03"/>
	<rect x="799.99" y="629.14" class="st7" width="76.13" height="38.03"/>
	<rect x="799.99" y="667.17" class="st65" width="76.13" height="38.03"/>
	<rect x="799.99" y="705.2" class="st8" width="76.13" height="38.03"/>
	<rect x="799.99" y="743.23" class="st42" width="76.13" height="38.03"/>
	<rect x="799.99" y="781.26" class="st49" width="76.13" height="38.03"/>
	<rect x="799.99" y="819.29" class="st2" width="76.13" height="38.03"/>
	<rect x="799.99" y="857.32" class="st46" width="76.13" height="38.03"/>
	<rect x="799.99" y="895.34" class="st66" width="76.13" height="38.03"/>
	<rect x="799.99" y="933.37" class="st8" width="76.13" height="38.03"/>
	<rect x="799.99" y="971.4" class="st0" width="76.13" height="38.03"/>
	<rect x="876.23" y="553.08" class="st0" width="75.92" height="38.03"/>
	<rect x="876.23" y="591.11" class="st67" width="75.92" height="38.03"/>
	<rect x="876.23" y="629.14" class="st68" width="76.13" height="38.03"/>
	<rect x="876.23" y="667.17" class="st2" width="76.13" height="38.03"/>
	<rect x="876.23" y="705.2" class="st37" width="76.13" height="38.03"/>
	<rect x="876.23" y="743.23" class="st0" width="76.13" height="38.03"/>
	<rect x="876.23" y="781.26" class="st69" width="76.13" height="38.03"/>
	<rect x="876.23" y="819.29" class="st49" width="76.13" height="38.03"/>
	<rect x="876.23" y="857.32" class="st70" width="76.13" height="38.03"/>
	<rect x="876.23" y="895.34" class="st5" width="76.13" height="38.03"/>
	<rect x="876.23" y="933.37" class="st71" width="76.13" height="38.03"/>
	<rect x="876.23" y="971.4" class="st72" width="76.13" height="38.03"/>
	<rect x="952.36" y="553.08" class="st47" width="75.92" height="38.03"/>
	<rect x="952.15" y="591.11" class="st46" width="76.13" height="38.03"/>
	<rect x="952.36" y="629.14" class="st73" width="76.13" height="38.03"/>
	<rect x="952.36" y="667.17" class="st71" width="76.13" height="38.03"/>
	<rect x="952.36" y="705.2" class="st74" width="76.13" height="38.03"/>
	<rect x="952.36" y="743.23" class="st75" width="76.13" height="38.03"/>
	<rect x="952.36" y="781.26" class="st2" width="76.13" height="38.03"/>
	<rect x="952.36" y="819.29" class="st7" width="76.13" height="38.03"/>
	<rect x="952.36" y="857.32" class="st66" width="76.13" height="38.03"/>
	<rect x="952.36" y="895.34" class="st64" width="76.13" height="38.03"/>
	<rect x="952.36" y="933.37" class="st76" width="76.13" height="38.03"/>
	<rect x="952.36" y="971.4" class="st26" width="76.13" height="38.03"/>
	<rect x="1104.52" y="553.08" class="st77" width="76.13" height="38.03"/>
	<rect x="1104.52" y="591.11" class="st78" width="76.13" height="38.03"/>
	<rect x="1104.73" y="629.14" class="st21" width="76.13" height="38.03"/>
	<rect x="1104.73" y="667.17" class="st66" width="76.13" height="38.03"/>
	<rect x="1104.73" y="705.2" class="st49" width="76.13" height="38.03"/>
	<rect x="1104.73" y="743.23" class="st79" width="76.13" height="38.03"/>
	<rect x="1104.73" y="781.26" class="st3" width="76.13" height="38.03"/>
	<rect x="1104.73" y="819.29" class="st8" width="76.13" height="38.03"/>
	<rect x="1104.73" y="857.32" class="st49" width="76.13" height="38.03"/>
	<rect x="1104.73" y="895.34" class="st2" width="76.13" height="38.03"/>
	<rect x="1104.73" y="933.37" class="st80" width="76.13" height="38.03"/>
	<rect x="1104.73" y="971.4" class="st3" width="76.13" height="38.03"/>
	<rect x="1180.86" y="553.08" class="st2" width="76.42" height="38.03"/>
	<rect x="1180.86" y="590.33" class="st0" width="76.42" height="38.17"/>
	<rect x="1180.86" y="628.5" class="st71" width="76.63" height="38.17"/>
	<rect x="1181.07" y="666.68" class="st81" width="76.42" height="38.17"/>
	<rect x="1181.07" y="704.85" class="st50" width="76.42" height="38.17"/>
	<rect x="1181.07" y="743.02" class="st66" width="76.42" height="38.17"/>
	<rect x="1181.07" y="781.19" class="st71" width="76.42" height="38.17"/>
	<rect x="1181.07" y="819.36" class="st66" width="76.42" height="38.17"/>
	<rect x="1181.07" y="857.53" class="st82" width="76.42" height="38.17"/>
	<rect x="1181.07" y="895.7" class="st82" width="76.42" height="38.17"/>
	<rect x="1181.07" y="933.87" class="st0" width="76.42" height="38.17"/>
	<rect x="1181.07" y="972.04" class="st0" width="76.42" height="38.17"/>
	<rect x="1028.49" y="553.08" class="st83" width="75.92" height="38.03"/>
	<rect x="1028.28" y="591.11" class="st84" width="76.13" height="38.03"/>
	<rect x="1028.49" y="629.14" class="st72" width="76.13" height="38.03"/>
	<rect x="1028.49" y="667.17" class="st0" width="76.13" height="38.03"/>
	<rect x="1028.49" y="705.2" class="st50" width="76.13" height="38.03"/>
	<rect x="1028.49" y="743.23" class="st2" width="76.13" height="38.03"/>
	<rect x="1028.49" y="781.26" class="st85" width="76.13" height="38.03"/>
	<rect x="1028.49" y="819.29" class="st0" width="76.13" height="38.03"/>
	<rect x="1028.49" y="857.32" class="st64" width="76.13" height="38.03"/>
	<rect x="1028.49" y="895.34" class="st64" width="76.13" height="38.03"/>
	<rect x="1028.49" y="933.37" class="st2" width="76.13" height="38.03"/>
	<rect x="1028.49" y="971.4" class="st2" width="76.13" height="38.03"/>
</g>
<g id="TIME">
	<text transform="matrix(0.9955 0 0 1.0012 214.7764 534.0344)" class="st17 st86 st87">2005</text>
	<text transform="matrix(0.9955 0 0 1.0012 291.3839 534.4455)" class="st17 st86 st87">2006</text>
	<text transform="matrix(0.9955 0 0 1.0012 365.7481 534.4455)" class="st17 st86 st87">2007</text>
	<text transform="matrix(0.9955 0 0 1.0012 442.5948 534.4455)" class="st17 st86 st87">2008</text>
	<text transform="matrix(0.9955 0 0 1.0012 516.6797 534.8547)" class="st17 st86 st87">2009</text>
	<text transform="matrix(0.9955 0 0 1.0012 593.5196 535.2668)" class="st17 st86 st87">2010</text>
	<text transform="matrix(0.9955 0 0 1.0012 672.2672 535.2668)" class="st17 st86 st87">2011</text>
	<text transform="matrix(0.9955 0 0 1.0012 746.0289 535.6769)" class="st17 st86 st87">2012</text>
	<text transform="matrix(0.9955 0 0 1.0012 823.5816 536.0861)" class="st17 st86 st87">2013</text>
	<text transform="matrix(0.9955 0 0 1.0012 900.4273 536.4973)" class="st17 st86 st87">2014</text>
	<text transform="matrix(0.9955 0 0 1.0012 978.7925 536.4973)" class="st17 st86 st87">2015</text>
	<text transform="matrix(0.9955 0 0 1.0012 1052.5464 536.9064)" class="st17 st86 st87">2016</text>
	<text transform="matrix(0.9955 0 0 1.0012 1128.4761 536.9064)" class="st17 st86 st87">2017</text>
	<text transform="matrix(0.9955 0 0 1.0012 1204.6323 537.3166)" class="st17 st86 st87">2018</text>
	<text transform="matrix(0.9391 0 0 1.0012 148.2378 572.5037)" class="st17 st88 st89">JAN</text>
	<text transform="matrix(1.0332 0 0 1.0012 148.0699 612.9572)" class="st17 st88 st89">FEB</text>
	<text transform="matrix(0.8568 0 0 1.0012 147.2324 649.95)" class="st17 st88 st89">MAR</text>
	<text transform="matrix(0.9642 0 0 1.0012 148.0708 689.1023)" class="st17 st88 st89">APR</text>
	<text transform="matrix(0.8542 0 0 1.0012 147.3989 726.1414)" class="st17 st88 st89">MAY</text>
	<text transform="matrix(0.948 0 0 1.0012 148.0708 765.8572)" class="st17 st88 st89">JUN</text>
	<text transform="matrix(1.0039 0 0 1.0012 148.5723 802.8298)" class="st17 st88 st89">JUL</text>
	<text transform="matrix(0.8405 0 0 1.0012 148.0698 840.8699)" class="st17 st88 st89">AUG</text>
	<text transform="matrix(1.0332 0 0 1.0012 147.9009 880.965)" class="st17 st88 st89">SEP</text>
	<text transform="matrix(0.8518 0 0 1.0012 147.5679 918.1765)" class="st17 st88 st89">OCT</text>
	<text transform="matrix(0.835 0 0 1.0012 147.3989 955.3611)" class="st17 st88 st89">NOV</text>
	<text transform="matrix(0.9067 0 0 1.0012 147.5669 993.9578)" class="st17 st88 st89">DEC</text>
	<text transform="matrix(0.9054 0 0 1.0012 173.2051 530.4738)" class="st90 st91 st92">YEAR</text>
	<text transform="matrix(0.8527 0 0 1.0012 148.5713 551.7869)" class="st90 st91 st93">MONTH</text>
	<g>
		<g>
			<line class="st94" x1="148.57" y1="526.14" x2="148.68" y2="526.2"/>
			<line class="st95" x1="149.09" y1="526.48" x2="185.85" y2="550.88"/>
			<line class="st94" x1="186.06" y1="551.02" x2="186.16" y2="551.09"/>
		</g>
	</g>
</g>
<circle id="_x30_807_event" class="st96" cx="457.07" cy="800.22" r="2.83"/>
<circle id="_x30_804_event_1_" class="st96" cx="457.07" cy="686.19" r="2.83"/>
<circle id="_x30_712_event" class="st96" cx="380.62" cy="990.42" r="2.83"/>
<circle id="_x30_708_event" class="st96" cx="380.83" cy="838.24" r="2.83"/>
<circle id="_x30_706_event" class="st96" cx="380.83" cy="762.19" r="2.83"/>
<circle id="_x30_702_event" class="st96" cx="380.83" cy="609.9" r="2.83"/>
<circle id="_x30_612_event" class="st96" cx="304.59" cy="990.36" r="2.83"/>
<circle id="_x30_610_event" class="st96" cx="304.59" cy="914.3" r="2.83"/>
<circle id="_x30_605_event" class="st96" cx="304.38" cy="724.16" r="2.83"/>
<circle id="_x30_602_event" class="st96" cx="304.59" cy="610.07" r="2.83"/>
<circle id="_x30_507_event" class="st96" cx="228.46" cy="800.22" r="2.83"/>
<circle id="_x30_611_company_1_" class="st97" cx="304.59" cy="952.33" r="2.83"/>
<circle id="_x30_606_company" class="st97" cx="228.46" cy="762.19" r="2.83"/>
<circle id="_x30_705_company" class="st97" cx="380.83" cy="724.16" r="2.83"/>
<circle id="_x30_802_company" class="st97" cx="457.07" cy="610.07" r="2.83"/>
<circle id="_x30_804_company" class="st97" cx="457.07" cy="686.13" r="2.83"/>
<circle id="_x30_805_company" class="st97" cx="456.86" cy="723.31" r="2.83"/>
<circle id="_x30_808_company" class="st97" cx="457.01" cy="838.44" r="2.83"/>
<circle id="_x30_809_company" class="st97" cx="457.01" cy="876.27" r="2.83"/>
<circle id="_x30_810_company" class="st97" cx="457.01" cy="914.3" r="2.83"/>
<g id="JIAOZHU">
	<g>
		<g>
			<defs>
				<rect id="SVGID_1_" x="1299.19" y="911.72" width="198.33" height="21.94"/>
			</defs>
			<linearGradient id="SVGID_2_" gradientUnits="userSpaceOnUse" x1="1299.1887" y1="922.6901" x2="1497.5215" y2="922.6901">
				<stop  offset="0" style="stop-color:#FFFFFF"/>
				<stop  offset="0.0978" style="stop-color:#F3F6FE"/>
				<stop  offset="0.2751" style="stop-color:#D3DEFB"/>
				<stop  offset="0.5117" style="stop-color:#9FB7F6"/>
				<stop  offset="0.7951" style="stop-color:#5882EE"/>
				<stop  offset="1" style="stop-color:#2058E9"/>
			</linearGradient>
			<use xlink:href="#SVGID_1_"  style="overflow:visible;fill:url(#SVGID_2_);"/>
			<clipPath id="SVGID_3_">
				<use xlink:href="#SVGID_1_"  style="overflow:visible;"/>
			</clipPath>
			<linearGradient id="SVGID_4_" gradientUnits="userSpaceOnUse" x1="1299.1887" y1="922.6901" x2="1497.5215" y2="922.6901">
				<stop  offset="0" style="stop-color:#FFFFFF"/>
				<stop  offset="0.0978" style="stop-color:#F3F6FE"/>
				<stop  offset="0.2751" style="stop-color:#D3DEFB"/>
				<stop  offset="0.5117" style="stop-color:#9FB7F6"/>
				<stop  offset="0.7951" style="stop-color:#5882EE"/>
				<stop  offset="1" style="stop-color:#2058E9"/>
			</linearGradient>
			<rect x="1299.19" y="911.72" class="st98" width="198.33" height="21.94"/>
		</g>
		<g>
			<text transform="matrix(0.8527 0 0 1.0012 1299.1881 954.252)" class="st90 st91 st99">Number Of Edits/Times</text>
		</g>
		<g>
			<rect x="1300.32" y="889.44" class="st100" width="20.7" height="19.18"/>
			<text transform="matrix(0.9054 0 0 1.0012 1300.3219 899.6299)" class="st90 st91 st101">0</text>
		</g>
		<g>
			<rect x="1483.15" y="889.44" class="st100" width="28.75" height="19.18"/>
			<text transform="matrix(0.9054 0 0 1.0012 1483.149 899.6299)" class="st90 st91 st101">67</text>
		</g>
	</g>
	<circle id="biaozhu_1_" class="st97" cx="1305.33" cy="979.39" r="5.01"/>
	<circle id="biaozhu" class="st96" cx="1305.33" cy="1002.83" r="5.01"/>
	<g>
		<rect x="1327.07" y="971.88" class="st100" width="112.97" height="15.02"/>
		<text transform="matrix(0.8527 0 0 1.0012 1327.0748 982.8985)" class="st90 st91 st99">COMPANY INTIATIVE</text>
	</g>
	<rect x="1327.07" y="996.47" class="st100" width="191.9" height="15.02"/>
	<text transform="matrix(0.8527 0 0 1.0012 1327.0748 1007.4942)" class="st90 st91 st99">EVENTS</text>
</g>
<g id="T0507_EVENT">
	<g>
		<rect x="256.36" y="130.61" class="st100" width="644.06" height="263.6"/>
		<text transform="matrix(1 0 0 1.0012 256.3627 148.5441)"><tspan x="0" y="0" class="st102 st88 st103">The Energy Policy Act of 2005 (Pub.L. 109–58) is a bill passed by </tspan><tspan x="0" y="25.17" class="st102 st88 st103">the United States Congress and signed into law.The act is an </tspan><tspan x="0" y="50.34" class="st102 st88 st103">attampt to combat growing energy problems changed US energy</tspan><tspan x="0" y="75.51" class="st102 st88 st103">policy by providing tax incentives and loan guarantees for energy </tspan><tspan x="0" y="100.68" class="st102 st88 st103">production of various types</tspan><tspan x="0" y="151.02" class="st102 st104 st103">https://www.gpo.gov/fdsys/pkg/PLAW-109publ58/html/PLAW-109</tspan><tspan x="614.07" y="151.02" class="st102 st104 st103">-</tspan><tspan x="0" y="176.19" class="st102 st104 st103">publ58.htm</tspan></text>
	</g>
	<rect x="256.36" y="87.2" class="st100" width="588.61" height="63.77"/>
	<text transform="matrix(1 0 0 1.0012 256.363 107.6991)" class="st17 st105 st106">The Energy Policy Act of 2005    2005.07.29</text>
	<circle class="st17" cx="225.95" cy="99.36" r="5.86"/>
</g>
<g id="T0602_EVENT">
	<g>
		<rect x="332.26" y="284.66" class="st100" width="646.1" height="170.18"/>
		<text transform="matrix(1 0 0 1.0012 332.2645 302.5963)"><tspan x="0" y="0" class="st102 st88 st103">The Public Utility Holding Company Act of 1935 was repealed, ef</tspan><tspan x="625.08" y="0" class="st102 st88 st103">-</tspan><tspan x="0" y="25.17" class="st102 st88 st103">fective on February 2006, by the passing of The Energy Policy Act </tspan><tspan x="0" y="50.34" class="st102 st88 st103">of 2005 (Pub.L. 109–58)</tspan><tspan x="0" y="100.68" class="st102 st104 st103">https://en.wikipedia.org/wiki/Public_Utility_Holding_Compa</tspan><tspan x="550.97" y="100.68" class="st102 st104 st103">-</tspan><tspan x="0" y="125.85" class="st102 st104 st103">ny_Act_of_1935</tspan></text>
	</g>
	<g>
		<rect x="330.99" y="234.54" class="st100" width="741.94" height="42.15"/>
		<text transform="matrix(1 0 0 1.0012 330.9878 255.0372)" class="st17 st105 st106">The passing of The Energy Policy Act of 2005    2006.02</text>
	</g>
	<circle class="st17" cx="304.36" cy="247.16" r="5.86"/>
</g>
<g id="T0605_EVENT">
	<g>
		<rect x="331.36" y="300.56" class="st100" width="829.58" height="117.9"/>
		<text transform="matrix(1 0 0 1.0012 331.3583 318.4979)"><tspan x="0" y="0" class="st102 st88 st103">White Paper - Cisco Energy Efficient Data Center Solutions and Best Practices</tspan><tspan x="0" y="50.34" class="st102 st104 st103">https://www.cisco.com/c/dam/en_us/solutions/indus</tspan><tspan x="483.62" y="50.34" class="st102 st104 st103">-</tspan><tspan x="0" y="75.51" class="st102 st104 st103">tries/docs/gov/EnergyEfficientDC_WP.pdf</tspan></text>
	</g>
	<g>
		<rect x="331.36" y="254.63" class="st100" width="639.83" height="38.9"/>
		<text transform="matrix(1 0 0 1.0012 331.3583 275.1265)" class="st17 st105 st106">White Paper - Cisco    2006.05</text>
	</g>
	<circle class="st17" cx="304.36" cy="266.22" r="5.86"/>
</g>
<g id="T0610_EVENT">
	<g>
		<rect x="332.34" y="286.34" class="st100" width="645.95" height="227.62"/>
		<text transform="matrix(1 0 0 1.0012 332.3402 304.275)"><tspan x="0" y="0" class="st102 st88 st103">The Energy Star program was established by the US EPA and oper</tspan><tspan x="637.36" y="0" class="st102 st88 st103">-</tspan><tspan x="0" y="25.17" class="st102 st88 st103">ates under the authority of the Clean Air Act, section 103(g), and </tspan><tspan x="0" y="50.34" class="st102 st88 st103">the 2005 Energy Policy Actsection 131. The Energy Star program </tspan><tspan x="0" y="75.51" class="st102 st88 st103">was revised to include stricter efficiency requirements for comput</tspan><tspan x="628.31" y="75.51" class="st102 st88 st103">-</tspan><tspan x="0" y="100.68" class="st102 st88 st103">er equipment</tspan><tspan x="0" y="151.02" class="st102 st104 st103">https://en.wikipedia.org/wiki/Energy_Star</tspan></text>
	</g>
	<circle class="st17" cx="304.36" cy="247.16" r="5.86"/>
	<g>
		<rect x="332.34" y="235.83" class="st100" width="581.57" height="44.39"/>
		<text transform="matrix(1 0 0 1.0012 332.3396 256.325)" class="st17 st105 st106">The Energy Star program   2006.10</text>
	</g>
</g>
<g id="T0612_EVENT">
	<g>
		<rect x="330.99" y="297.84" class="st100" width="647.8" height="205.51"/>
		<text transform="matrix(1 0 0 1.0012 330.9876 315.7787)"><tspan x="0" y="0" class="st102 st88 st103">The energy used by the nation&apos;s servers and data centers con</tspan><tspan x="588.71" y="0" class="st102 st88 st103">-</tspan><tspan x="0" y="25.17" class="st102 st88 st103">sumed about 61 billion kilowatt-hours (kWh) in 2006 (1.5 percent </tspan><tspan x="0" y="50.34" class="st102 st88 st103">of total U.S. electricity consumption) According to the U.S. EPA </tspan><tspan x="0" y="75.51" class="st102 st88 st103">Report to Congress on Server and Data Center Energy Efficiency</tspan><tspan x="0" y="125.85" class="st102 st104 st103">https://www.datacenterdynamics.com/news/epa-report-to-con</tspan><tspan x="571.76" y="125.85" class="st102 st104 st103">-</tspan><tspan x="0" y="151.02" class="st102 st104 st103">gress-on-server-and-data-center-energy-efficiency/</tspan></text>
	</g>
	<g>
		<rect x="330.99" y="253.02" class="st100" width="668.99" height="42.89"/>
		<text transform="matrix(1 0 0 1.0012 330.9877 273.5187)" class="st17 st105 st106">The U.S. EPA Report to Congress    2006.12</text>
	</g>
	<circle class="st17" cx="304.36" cy="266.07" r="5.86"/>
</g>
<g id="T0702_EVENT">
	<g>
		<rect x="406.59" y="278.86" class="st100" width="630.28" height="156.27"/>
		<text transform="matrix(1 0 0 1.0012 406.5852 296.7966)"><tspan x="0" y="0" class="st102 st88 st103">The Green Grid is a global consortium dedicated to advancing </tspan><tspan x="0" y="25.17" class="st102 st88 st103">energy efficiency in data centers and business computing ecosys</tspan><tspan x="622.24" y="25.17" class="st102 st88 st103">-</tspan><tspan x="0" y="50.34" class="st102 st88 st103">tems. It was founded by several key companies</tspan><tspan x="0" y="100.68" class="st102 st104 st103">https://en.wikipedia.org/wiki/The_Green_Grid</tspan></text>
	</g>
	<g>
		<rect x="406.48" y="234.18" class="st100" width="426.97" height="44.68"/>
		<text transform="matrix(1 0 0 1.0012 406.4817 254.6763)" class="st17 st105 st106">The Green Grid   2007.02</text>
	</g>
	<circle class="st17" cx="379.85" cy="247.18" r="5.86"/>
</g>
<g id="T0706_EVENT">
	<g>
		<rect x="406.48" y="280.71" class="st100" width="721.99" height="192.32"/>
		<text transform="matrix(1 0 0 1.0012 406.4825 298.6469)"><tspan x="0" y="0" class="st102 st88 st103">Climate Savers Computing Initiative (CSCI) is a nonprofit  organizations </tspan><tspan x="0" y="25.17" class="st102 st88 st103">dedicated to promoting smart technologies that improve power efficiency </tspan><tspan x="0" y="50.34" class="st102 st88 st103">and reduce energy consumption of computers</tspan><tspan x="0" y="100.68" class="st102 st104 st103">https://en.wikipedia.org/wiki/Climate_Savers_Computing_Initiative</tspan></text>
	</g>
	<g>
		<rect x="406.48" y="233.28" class="st100" width="721.07" height="44.73"/>
		<text transform="matrix(1 0 0 1.0012 406.4827 253.773)" class="st17 st105 st106">Climate Savers Computing Initiative (CSCI)    2007.06</text>
	</g>
	<circle class="st17" cx="379.86" cy="245.05" r="5.86"/>
</g>
<g id="T0708_EVENT">
	<g>
		<rect x="405.03" y="309.04" class="st100" width="671.36" height="124.83"/>
		<text transform="matrix(1 0 0 1.0012 405.029 326.9727)"><tspan x="0" y="0" class="st102 st88 st103">U.S. Environmental Protection Agency ENERGY STAR Program</tspan><tspan x="0" y="50.34" class="st102 st104 st103">https://www.energystar.gov/ia/partners/prod_development/down</tspan><tspan x="603.36" y="50.34" class="st102 st104 st103">-</tspan><tspan x="0" y="75.51" class="st102 st104 st103">loads/EPA_Report_Exec_Summary_Final.pdf </tspan></text>
	</g>
	<g>
		<rect x="406.24" y="234.18" class="st100" width="712.74" height="61.06"/>
		<text transform="matrix(1 0 0 1.0012 406.2368 254.6763)"><tspan x="0" y="0" class="st17 st105 st106">Report to Congress on Server and Data Center Energy Ef</tspan><tspan x="695.94" y="0" class="st17 st105 st106">-</tspan><tspan x="0" y="28.77" class="st17 st105 st106">ficiency Public Law 109-431   2007.08.02</tspan></text>
	</g>
	<circle class="st17" cx="379.61" cy="247.87" r="5.86"/>
</g>
<g id="T0712EVENT">
	<g>
		<rect x="407.66" y="281.27" class="st100" width="644.89" height="153.87"/>
		<text transform="matrix(1 0 0 1.0012 407.6552 299.2004)"><tspan x="0" y="0" class="st102 st88 st103">Data center energy efficiency and productivity</tspan><tspan x="0" y="50.34" class="st102 st104 st103">http://large.stanford.edu/courses/2017/ph240/yu2/docs/brill.pdf</tspan></text>
	</g>
	<g>
		<rect x="407.66" y="234.18" class="st100" width="577.33" height="34.07"/>
		<text transform="matrix(1 0 0 1.0012 407.6554 254.6763)" class="st17 st105 st106">White paper of the uptime institute    2007.12</text>
	</g>
	<circle class="st17" cx="381.03" cy="246.59" r="5.86"/>
</g>
<g id="T0804_EVENT">
	<g>
		<rect x="490.63" y="279.63" class="st100" width="690.44" height="178.25"/>
		<text transform="matrix(1 0 0 1.0012 490.6313 297.5598)"><tspan x="0" y="0" class="st102 st88 st103">“Energy Logic: Reducing DataCenter Energy Consumption by Creating </tspan><tspan x="0" y="25.17" class="st102 st88 st103">Savings That Cascade Across Systems”</tspan><tspan x="0" y="75.51" class="st102 st104 st103">https://planetaklimata.com.ua/instr/Liebert_Hiross/Emerson_</tspan><tspan x="558.19" y="75.51" class="st102 st104 st103">-</tspan><tspan x="0" y="100.68" class="st102 st104 st103">Network_Power_EnergyLogic_2012_Eng.pdf</tspan></text>
	</g>
	<g>
		<rect x="491.26" y="232.33" class="st100" width="644.1" height="58.71"/>
		<text transform="matrix(1 0 0 1.0012 491.2635 252.8232)" class="st17 st105 st106">White paper of Emerson Network Power    2008.04</text>
	</g>
	<circle class="st17" cx="465.11" cy="245.69" r="5.86"/>
</g>
<g id="T0807_EVENT">
	<g>
		<rect x="484.73" y="284.71" class="st100" width="671.61" height="165.04"/>
		<text transform="matrix(1 0 0 1.0012 484.7264 302.6407)"><tspan x="0" y="0" class="st102 st88 st103">Revolutionizing Data Center Energy Efficiency McKinsey&amp;Company</tspan><tspan x="0" y="50.34" class="st102 st104 st103">https://www.sallan.org/pdf-docs/McKinsey_Data_Center_Efficiency.pdf</tspan></text>
	</g>
	<g>
		<rect x="483.45" y="234.18" class="st100" width="308.45" height="56.16"/>
		<text transform="matrix(1 0 0 1.0012 483.4502 254.6763)" class="st17 st105 st106">Report   2008.07</text>
	</g>
	<circle class="st17" cx="456.82" cy="246.87" r="5.86"/>
</g>
<g id="T0602">
	<g>
	</g>
	<text transform="matrix(1 0 0 1.0012 261.1528 338.7332)"><tspan x="0" y="0" class="st102 st88 st103"> </tspan><tspan x="0" y="25.17" class="st102 st88 st103">Data Center and FacilitiesStrategy Services—data </tspan><tspan x="0" y="50.34" class="st102 st88 st103">center energy efficiency assessment </tspan><tspan x="0" y="100.68" class="st102 st104 st103">https://www-935.ibm.com/services/multimedia/DC_energy_efficiency.pdf</tspan></text>
	<g>
		<rect x="261.15" y="296.59" class="st100" width="741.94" height="42.15"/>
		<text transform="matrix(1 0 0 1.0012 261.1529 317.0838)" class="st107 st105 st106">IBM 2005.6.25</text>
	</g>
	<circle class="st107" cx="231.29" cy="307.62" r="5.86"/>
</g>
<g id="T0611">
	<g>
		<text transform="matrix(1 0 0 1.0012 339.154 250.9578)" class="st107 st105 st106">HP   2006.11.29</text>
	</g>
	<text transform="matrix(1 0 0 1.0012 337.4507 288.533)"><tspan x="0" y="0" class="st102 st88 st103">Research contributed to the company&apos;s new</tspan><tspan x="0" y="25.17" class="st102 st88 st103">Dynamic Smart Coolivng technology which can </tspan><tspan x="0" y="50.34" class="st102 st88 st103">dramatically reduce data center energy costs </tspan><tspan x="0" y="100.68" class="st102 st104 st103">http://www.hpl.hp.com/news/2006/oct-dec/power.html</tspan></text>
	<circle class="st107" cx="310.45" cy="242.64" r="5.86"/>
</g>
<g id="T0705">
	<g>
		<text transform="matrix(1 0 0 1.0012 412.4176 253.9003)" class="st107 st105 st106">IBM   2007.5.12</text>
	</g>
	<text transform="matrix(1 0 0 1.0012 412.4176 298.0796)"><tspan x="0" y="0" class="st102 st88 st103">On Thursday unveiled a US$1 billion-a-year</tspan><tspan x="0" y="25.17" class="st102 st88 st103">service initiative aimed at building and redesigning </tspan><tspan x="0" y="50.34" class="st102 st88 st103">data centers that consume less energy</tspan><tspan x="0" y="100.68" class="st102 st104 st103">https://www.pcworld.com/article/131777/article.html</tspan><tspan x="0" y="125.85" class="st102 st88 st103"> </tspan></text>
	<circle class="st107" cx="380.86" cy="245.27" r="5.86"/>
</g>
<g id="T0802">
	<g>
		<text transform="matrix(1 0 0 1.0012 412.4048 235.2127)" class="st107 st105 st106">DELL    2008.2.5</text>
	</g>
	<text transform="matrix(1 0 0 1.0012 410.7015 278.4352)"><tspan x="0" y="0" class="st102 st88 st103">By consolidating systems using virtualization </tspan><tspan x="0" y="25.17" class="st102 st88 st103">and Dell “PowerEdge”Energy Smart servers </tspan><tspan x="0" y="50.34" class="st102 st88 st103">organizations can retire legacy hardware to help </tspan><tspan x="0" y="75.51" class="st102 st88 st103">significantly reduce power and cooling requirements </tspan><tspan x="0" y="100.68" class="st102 st88 st103">and create a green data center</tspan><tspan x="0" y="151.02" class="st102 st104 st103">http://i.dell.com/sites/content/business/solutions/power/en/</tspan><tspan x="0" y="176.18" class="st102 st104 st103">Documents/Best_Practices_for_Increasing_Data_Center_Energy_Efficiency.pdf</tspan></text>
	<circle class="st107" cx="380.84" cy="226.53" r="5.86"/>
</g>
<g id="T0804">
	<g>
		<text transform="matrix(1 0 0 1.0012 488.4148 251.7809)" class="st107 st105 st106">HITACHI  2008.4.22</text>
	</g>
	<text transform="matrix(1 0 0 1.0012 486.7118 293.9551)"><tspan x="0" y="0" class="st102 st88 st103">Reveals greenest data center dream</tspan><tspan x="0" y="50.34" class="st102 st104 st103">https://www.theregister.co.uk/2008/04/22/hitachi_greenest_data_center_evar/</tspan><tspan x="0" y="75.51" class="st102 st88 st103"> </tspan></text>
	<circle class="st107" cx="457.04" cy="243.04" r="5.86"/>
</g>
<g id="T0805">
	<g>
		<text transform="matrix(1 0 0 1.0012 488.4153 249.702)" class="st107 st105 st106">IBM    2008.5.8</text>
	</g>
	<text transform="matrix(1 0 0 1.0012 488.4155 290.3955)"><tspan x="0" y="0" class="st102 st88 st103">Creating a green data center to help </tspan><tspan x="0" y="25.17" class="st102 st88 st103">reduce energy costs and gain a </tspan><tspan x="0" y="50.34" class="st102 st88 st103">competitive advantage.</tspan><tspan x="0" y="100.68" class="st102 st104 st103">https://www-935.ibm.com/services/multimedia/GTW03020USEN_186553.pdf</tspan></text>
	<circle class="st107" cx="456.85" cy="241.84" r="5.86"/>
</g>
<g id="T0808">
	<g>
		<text transform="matrix(1 0 0 1.0012 486.7114 254.2719)" class="st107 st105 st106">MICROSOFT   2008.8.28</text>
	</g>
	<text transform="matrix(1 0 0 1.0012 488.4152 291.8117)"><tspan x="0" y="0" class="st102 st88 st103">Charging Customers for </tspan><tspan x="0" y="25.17" class="st102 st88 st103">Power Usage in Microsoft Data Centers</tspan><tspan x="0" y="75.51" class="st102 st104 st103">https://blogs.msdn.microsoft.com/the_power_of_software/</tspan><tspan x="0" y="100.68" class="st102 st104 st103">2008/08/28/charging-customers-for-power-usage-in-microsoft-data-centers/</tspan></text>
	<circle class="st107" cx="456.85" cy="246.41" r="5.86"/>
</g>
<g id="T0809">
	<g id="_x30_80908">
		<g>
			<text transform="matrix(1 0 0 1.0012 565.84 100.1124)" class="st107 st105 st106">GOOGLE   2008.9.8</text>
		</g>
		<text transform="matrix(1 0 0 1.0012 565.84 145.8182)"><tspan x="0" y="0" class="st102 st88 st103">Is pondering a floating data </tspan><tspan x="0" y="25.17" class="st102 st88 st103">center that could be powered and cooled</tspan><tspan x="0" y="50.34" class="st102 st88 st103">by the ocean</tspan><tspan x="0" y="100.68" class="st102 st104 st103">https://www.zdnet.com/article/google-makes</tspan><tspan x="0" y="125.85" class="st102 st104 st103">-waves-and-may-have-solved-the-data-center</tspan><tspan x="0" y="151.02" class="st102 st104 st103">-conundrum/</tspan></text>
		<circle class="st107" cx="536.19" cy="92.19" r="5.86"/>
	</g>
	<g id="T080914">
		<g>
			<text transform="matrix(1 0 0 1.0012 565.8402 343.0289)" class="st107 st105 st106">HSBC   2008.9.14</text>
		</g>
		<text transform="matrix(1 0 0 1.0012 565.8404 384.0157)"><tspan x="0" y="0" class="st102 st88 st103">data centre achieves green </tspan><tspan x="0" y="25.17" class="st102 st88 st103">standard UK first</tspan><tspan x="0" y="75.51" class="st102 st104 st103">https://www.itpro.co.uk/606288/hsbc-</tspan><tspan x="0" y="100.68" class="st102 st104 st103">data-centre-achieves-green-standard-uk-first</tspan></text>
		<circle class="st107" cx="536.19" cy="334.17" r="5.86"/>
	</g>
	<g id="T080918">
		<g>
			<text transform="matrix(1 0 0 1.0012 1069.6454 100.0416)" class="st107 st105 st106">IBM   2008.9.18</text>
		</g>
		<text transform="matrix(1 0 0 1.0012 1069.6453 145.6586)"><tspan x="0" y="0" class="st102 st88 st103">Is launching a new 30 million euro </tspan><tspan x="0" y="25.17" class="st102 st88 st103">data center, one of the key elements of </tspan><tspan x="0" y="50.34" class="st102 st88 st103">data center design is the use of IBM&apos;s </tspan><tspan x="0" y="75.51" class="st102 st88 st103">&quot;green strategy&quot;</tspan><tspan x="0" y="125.85" class="st102 st104 st103">https://www.irishtimes.com/business/ibm-</tspan><tspan x="0" y="151.02" class="st102 st104 st103">unveils-new-30m-data-centre-1.939295</tspan></text>
		<circle class="st107" cx="1040" cy="92.19" r="5.86"/>
	</g>
	<g id="T080924">
		<g>
			<text transform="matrix(1 0 0 1.0012 1070.3 343.5282)" class="st107 st105 st106">INTEL   2008.9.24</text>
		</g>
		<text transform="matrix(1 0 0 1.0012 1070.2988 383.7961)"><tspan x="0" y="0" class="st102 st88 st103">Data centers could use some fresh air</tspan><tspan x="0" y="50.34" class="st102 st104 st103">https://www.cnet.com/news/intel-data-</tspan><tspan x="0" y="75.51" class="st102 st104 st103">centers-could-use-some-fresh-air/</tspan></text>
		<circle class="st107" cx="1040.65" cy="334.17" r="5.86"/>
	</g>
</g>
<g id="T0810">
	<g>
		<text transform="matrix(1 0 0 1.0012 486.5277 350.8459)" class="st107 st105 st106">GOOGLE   2008.10.7</text>
	</g>
	<text transform="matrix(1 0 0 1.0012 486.528 395.8999)"><tspan x="0" y="0" class="st102 st88 st103">Setting the Bar on Data Center Efficiency</tspan><tspan x="0" y="50.34" class="st102 st104 st103">https://www.treehugger.com/clean-technology/</tspan><tspan x="0" y="75.51" class="st102 st104 st103">google-setting-the-bar-on-data-center-efficiency.html</tspan></text>
	<circle class="st107" cx="456.88" cy="342.01" r="5.86"/>
</g>
</svg>
